<svg xmlns="http://www.w3.org/2000/svg" width="498.9" height="150.14" viewBox="0 0 498.9 150.14"><title>12345</title><path d="M454.77,23.55c-1.2-1.53-1.53-1.74-2.35-1a.61.61,0,0,0,.13,1,3.52,3.52,0,0,0,2,.45.27.27,0,0,0,.2-.44m-11.2,74.22a1.7,1.7,0,0,1-.13-2.85l.27-.19c2.25-1.52,2.91-3.18,2-5.68a3.09,3.09,0,0,1,.12-2.51,9.5,9.5,0,0,0,1.06-3.85A3.28,3.28,0,0,1,448.47,80c1.09-.7,2-1.63,3-2.43,1.18-.93,2.28-.9,3.08.33,1.65,2.55,3.44,5.06,3.75,8.23a8.91,8.91,0,0,0,1.73,4.52,7.49,7.49,0,0,1,1.63,4.18,6.66,6.66,0,0,0,.84,2.78c1,1.91,2.23,3.74,3.39,5.58a4.23,4.23,0,0,0,.88,1,1.65,1.65,0,0,0,2.34-.18,8,8,0,0,0,1.08-8.79l-.47-.84a3.25,3.25,0,0,1,.59-4c.23-.21.45-.42.66-.64a40.46,40.46,0,0,0,3-3.44,5.33,5.33,0,0,0,.36-6.13c-.49-.85-1-1.7-1.4-2.59a3.42,3.42,0,0,1,.35-3.69A19.51,19.51,0,0,1,478,69.33a23.21,23.21,0,0,0,2.8-2.23,2.28,2.28,0,0,0,.21-3.25,6.16,6.16,0,0,0-.86-1,17.45,17.45,0,0,1-4-5.13.55.55,0,0,0-.14-.17,1.06,1.06,0,0,0-1.4,0,1.8,1.8,0,0,0-.47.53c-1,2-2,4.1-3,6.17-.55,1.17-1,2.42-1.62,3.54a1.68,1.68,0,0,1-2.76.51A12.14,12.14,0,0,1,462.41,62a34.59,34.59,0,0,0-2.68-6.7c-.92-1.74-1.49-3.89-2.69-5.55-1.35-1.88-3.32-2-5.09-.44a6.61,6.61,0,0,0-2.07,3.26,28.42,28.42,0,0,0-.67,2.87A122.36,122.36,0,0,1,446,69.29a27.73,27.73,0,0,1-1.1,3A24.73,24.73,0,0,0,443,78c-.34,1.82-1.52,2.31-3.11,1.45a5.92,5.92,0,0,1-3.14-4.69,2.2,2.2,0,0,1,1.06-2.35c.73-.44,1.47-.87,2.15-1.37a36.88,36.88,0,0,0,4.22-3.47,2.71,2.71,0,0,0,.38-3.59c-.52-.83-1.11-1.62-1.68-2.41a6.59,6.59,0,0,1-1.3-3.31c-.13-1.62-.23-3.25-.36-4.88a3.86,3.86,0,0,1,1.26-3.23c.7-.69,1.43-1.35,2.07-2.09,1.49-1.73,1.05-3.34-1.2-3.86A29.15,29.15,0,0,1,434.17,40h0a1.76,1.76,0,0,1-.26-2.75c.2-.19.4-.37.61-.54a1.84,1.84,0,0,1,2.63.35h0c.64.88,1.07,1.91,1.76,2.74,1.15,1.39,2.57,1.3,3.45-.23A30,30,0,0,0,443.94,36c.16-.36.3-.72.44-1.09a2.55,2.55,0,0,1,2-1.58,37,37,0,0,0,6.78-2,20.41,20.41,0,0,0,2.42-1c1.31-.67,1.35-1.73.06-2.43a22.66,22.66,0,0,0-7-2.55,1.36,1.36,0,0,1-1.08-1.75v0c.74-2.28,1.45-4.57,2.33-6.79a11.57,11.57,0,0,1,1.88-3,1.64,1.64,0,0,1,2.77.16,8.76,8.76,0,0,1,1.15,2c.74,1.81,1.43,3.65,2.08,5.49,1.1,3.08,1.95,6.25,3.27,9.22a92.65,92.65,0,0,0,4.7,8.57,3.51,3.51,0,0,0,1.68,1.63,1.25,1.25,0,0,0,1.29-.26,1.64,1.64,0,0,0,.44-.54,63.21,63.21,0,0,0,2.8-6.59c1.25-3.82,2.27-7.72,3.32-11.37,1.07-1.09,2.14-.74,3.11-.45a28.71,28.71,0,0,1,3.11,1.1,16.3,16.3,0,0,0,4.75,1.42,4.14,4.14,0,0,1,3.61,2.91c.49,1.32,1.13,2.59,1.66,3.89a1.26,1.26,0,0,1-1,1.7,2,2,0,0,1-2.29-.84c-.35-.55-.66-1.13-1-1.7-.48-.86-.88-1.76-1.42-2.57-1.27-1.9-1.87-1.95-4.11-1.52a8.35,8.35,0,0,0-6.8,6.24c-.52,1.66-1.27,3.24-1.8,4.9-.4,1.23-.54,2.54-.9,3.79-.63,2.19-1.32,4.37-2,6.53a5.06,5.06,0,0,1-.81,1.4,1.57,1.57,0,0,1-2.53.28,15.59,15.59,0,0,1-2-2.53,44.18,44.18,0,0,1-4.61-9.35c-.31-.87-.65-1.74-1-2.63a2.46,2.46,0,0,0-2.59-1.54,36.74,36.74,0,0,0-8.75,2.28A2.45,2.45,0,0,0,446.38,37c-.29,1-.57,1.89-.84,2.8a1.24,1.24,0,0,0,.31,1.24,3.44,3.44,0,0,0,1.43,1,1,1,0,0,0,1.38-.77c.13-.67.25-1.33.4-2a6.13,6.13,0,0,1,2.34-3.81c1.92-1.39,3.83-1,4.86,1.16A17,17,0,0,1,458,41.49c.61,4.69,3,8.6,5.1,12.64A39.79,39.79,0,0,0,465.5,58,8.76,8.76,0,0,0,467,59.75a1.55,1.55,0,0,0,2.29-.24A14.2,14.2,0,0,0,470.78,57a44.22,44.22,0,0,0,2.56-8.42,24.4,24.4,0,0,1,1.16-3.73,2.91,2.91,0,0,1,3.09-1.93,16.76,16.76,0,0,1,6,1.4c2.17,1,2.66,2.35,1.76,4.48a6,6,0,0,1-.44.88,4.7,4.7,0,0,0-.25,4.67,3.92,3.92,0,0,1,.36.91,13.37,13.37,0,0,0,4.16,8.27,4,4,0,0,1,.73,1.08,2.45,2.45,0,0,1-.41,3.28,21.5,21.5,0,0,1-3.25,2.1c-1.59.93-3.24,1.77-4.8,2.75a9.16,9.16,0,0,0-1.92,1.76,3.17,3.17,0,0,0-.06,4.68c.7.83,1.53,1.54,2.23,2.38,1.08,1.31,1,2.28-.44,3.31a17.24,17.24,0,0,1-2.54,1.46,13.4,13.4,0,0,0-3.9,2.91,5.36,5.36,0,0,0-1.55,5.09c1.21,5-.66,9.42-2.51,13.85a6.46,6.46,0,0,1-1.28,1.88,2.52,2.52,0,0,1-3.53.45,7.89,7.89,0,0,1-2.12-2,20.85,20.85,0,0,1-2-3.73c-1-2.41-2-4.85-2.82-7.31-1.36-3.9-2.64-7.83-3.95-11.74a8.47,8.47,0,0,0-.45-1.22,2.55,2.55,0,0,0-3.27-1.4,2.5,2.5,0,0,0-1.88,3c.82,3.5-.77,6.38-2.25,9.28a6.2,6.2,0,0,1-1.77,1.88c-.77.59-1.32.79-1.89.5" transform="translate(7.27 -1.86)"/><path d="M113.76,66.27a7.92,7.92,0,0,0,2.38,1c.87.21,2.11-.17.72-1.38a9.36,9.36,0,0,0-1.33-1,1.68,1.68,0,0,0-1.83,0c-.47.33-.6.77.06,1.26m24.72-41.94a.8.8,0,0,0-.25-1.44,3.5,3.5,0,0,0-2.77.3,3,3,0,0,0-1.46.94.75.75,0,0,0,.41,1.13,4.64,4.64,0,0,0,3-.46,4.62,4.62,0,0,0,1.06-.47m-22,11.11a3.12,3.12,0,0,1,.29-2.61h0c1.3-2.16,1.1-3.78-.75-5.42a14.55,14.55,0,0,0-1.9-1.26L113,25.47a1,1,0,0,1,.69-1.89h0c2.68.55,5.32,1.25,7.19,3.48.49.59.9,1.24,1.43,1.79,1.22,1.27,2.48,1.2,3.57-.21a6.32,6.32,0,0,0,1-1.68,12.07,12.07,0,0,1,3.94-5.12c.42-.34.83-.71,1.24-1.07a4.81,4.81,0,0,0,1.7-3.38c.19-2.53,1.1-3.24,3.5-3.18a5.12,5.12,0,0,1,4.4,2.4,37.69,37.69,0,0,1,2.4,4.64,4,4,0,0,1-.7,4.28,16,16,0,0,1-1.2,1.27,2.42,2.42,0,0,0,.34,3.66l.45.32c1.56,1.18,3.17,2.32,4.65,3.59s3,2.21,5,1.9l.17,0a.6.6,0,0,1,.69.47,1.2,1.2,0,0,1,0,.23c0,.54-.22.62-.6.9s-.94.55-1.39.85c-2.08,1.36-2.7,2.63-2.08,5a30.18,30.18,0,0,1,.8,4.81,15.88,15.88,0,0,0,1,3.41,17.3,17.3,0,0,1,.84,2.45,4.25,4.25,0,0,1-2.19,4.4,3.63,3.63,0,0,1-4.54-.26,14.51,14.51,0,0,1-3.87-4.38c-.12-.19-.21-.39-.32-.59a1.68,1.68,0,0,0-2.86-.2h0a26.11,26.11,0,0,1-4.74,4.94,19.87,19.87,0,0,0-5.09,6.32c-1,2.1-1.7,4.26-.91,6.61a5.18,5.18,0,0,1,.17,1,4.72,4.72,0,0,1-3.69,5.65,19.23,19.23,0,0,1-3.23.35l-2.59.22a1.27,1.27,0,0,0-1.06,1.8c1,2.07,2,4.12,3,6.19a3.4,3.4,0,0,0,2,2c.14,0,.27.1.41.15a3.51,3.51,0,0,0,4.55-1.77.14.14,0,0,1,0-.06c1.07-2.26,2-4.57,3.18-6.8A12.9,12.9,0,0,1,134.54,75c2.9-2,5-1.65,7.05,1.08a6.3,6.3,0,0,1,1.5,3.89,7.81,7.81,0,0,0,2.16,5.31c1,1.15,1.82,2.45,2.83,3.6a2,2,0,0,0,2.92.42c.76-.43,1.46-1,2.22-1.36a1.78,1.78,0,0,1,2.1.42,1.59,1.59,0,0,1,.39,2.07c-1,2-2,4.1-3.16,6.08a9.35,9.35,0,0,1-1.93,2.19c-1.07,1-2.58,1-3.28-.92-1.11-3.06-2.48-6-3.68-9.07a9.75,9.75,0,0,0-3.23-4.08,8.1,8.1,0,0,0-1.42-.9c-2.66-1.29-4.55-1-6.24,1.34A35.5,35.5,0,0,0,130,89.9c-1,1.93-1.86,3.94-2.87,5.87a11.34,11.34,0,0,1-1.67,2.4c-1,1.16-2.25,1.13-3.42,0A9,9,0,0,1,119.67,94,18.75,18.75,0,0,0,117,88.44a15,15,0,0,1-1.46-2.92c-.75-1.8-1.37-3.67-2.16-5.46-.68-1.54-.86-2.92.6-4.11a2,2,0,0,0,.43-.49,1.33,1.33,0,0,0-.17-2,37.85,37.85,0,0,0-3.58-2.26,20.55,20.55,0,0,0-2.09-.9,3.37,3.37,0,0,1-2.08-3.71,8.14,8.14,0,0,1,1.86-4.8c2.11-2.4,4.63-3.44,7.82-1.53,1.59.95,3.11,2,4.72,2.92,2,1.13,3.08,1,4.65-.67,2.59-2.83,4.91-5.81,5.18-9.93.23-3.45,2-6.43,3.56-9.39,1.22-2.25,3.38-3.32,5.77-4,.94-.25,1.93-.37,2.85-.68,1.8-.62,2.1-2.28.63-3.51a7.64,7.64,0,0,0-2-1.13c-2.51-1.07-5-2.12-7.55-3.11-3-1.15-5.35.19-6.1,3.38a9.92,9.92,0,0,1-.54,2.21,15,15,0,0,1-1.94,3,3.32,3.32,0,0,1-4.16.82,7.92,7.92,0,0,1-4.8-4.72" transform="translate(7.27 -1.86)"/><path d="M360.19,77.38a.6.6,0,0,0,.7.76,4.36,4.36,0,0,0,2.3-.93c1.11-.82,1.22-1.78.2-2.63a4.11,4.11,0,0,0-.87-.53,1.11,1.11,0,0,0-1.55.68c-.26.87-.51,1.72-.78,2.65m-1.93-30.26a1.68,1.68,0,0,0-1.62-.22c-.88.38-1,1.6-1,2a6.8,6.8,0,0,0,.48,2.45c.31,1.31.77,3.23-.15,4.63a3.84,3.84,0,0,1-1.37,1.19c-.22.13-2.57,1.47-4.22.56-2-1.13-1.83-5.07-1.79-5.7.08-1.55.5-2.16.16-3.55a4.9,4.9,0,0,0-1.54-2.61,4.76,4.76,0,0,0-2.7-1.08h-.32a4.18,4.18,0,0,0-2.84,1.4,5.33,5.33,0,0,0-1.21,2.19,1.59,1.59,0,0,0,.77,1.93c1.33.71,1.7,1.23,2.49,3,.53,1.19,1,2.41,1.41,3.65.83,2.44,1.67,4.88,2.42,7.35a41.61,41.61,0,0,0,5.65,11.48,13.8,13.8,0,0,0,1.66,2,1.36,1.36,0,0,0,2.24-.21,11.79,11.79,0,0,0,1.88-3.93,2,2,0,0,0-.89-2.16l0,0a30.11,30.11,0,0,1-3.3-2.08,2.41,2.41,0,0,1-.47-3.72A18,18,0,0,1,356.71,63c1.18-1,2.49-1.76,3.7-2.68,2.92-2.24,3-3.41.41-6a8.92,8.92,0,0,1-1.76-4.45c-.24-1.36-.11-2.22-.8-2.75M340.61,58.94c-1.89.34-2.39,2.27-3.08,3.69a19.53,19.53,0,0,0-1,2.26c-1.28,3.71-1,8.89-2.16,12.63-.46,1.45-1.19,2.12-2.06,3.75-1,1.8-1.74,2.49-2.56,4a1.87,1.87,0,0,1-3.25.36,9.21,9.21,0,0,1-2.28-4.27,1.34,1.34,0,0,1,1.09-1.7c.73-.19,1.52-.25,2.22-.51a11.61,11.61,0,0,0,2.6-1.27,3.06,3.06,0,0,0,1.24-4c-.42-1-.73-2.06-1.19-3a4.83,4.83,0,0,1,.21-4.69c.81-1.41,1.58-2.86,2.48-4.21a12.19,12.19,0,0,0,2.23-8.63c-.42-3.29.56-6.48,1.21-9.67a9.57,9.57,0,0,1,2.55-4.12c2.05-2.41,2-2.54,0-4.9a18,18,0,0,1-1.8-2.3,2.88,2.88,0,0,1,.81-4.05,6.62,6.62,0,0,1,5.2-1.47,24.41,24.41,0,0,1,5,1.34l.05,0a3.15,3.15,0,0,1-.1,5.83,8.43,8.43,0,0,0-2.48,1.36,2.2,2.2,0,0,0,.11,3.51h0a10.81,10.81,0,0,0,7.36,2.19c3.08-.13,4.74-1.88,4.8-5,0-.35,0-.65,0-.91a2.58,2.58,0,0,1,3.41-2.34A48.91,48.91,0,0,1,368.78,36a4.91,4.91,0,0,1,1,.82,1.42,1.42,0,0,1,.09,2.06,23.87,23.87,0,0,1-2.34,2.27,4.35,4.35,0,0,0-1.53,5,19.07,19.07,0,0,1,.52,3.2,6.45,6.45,0,0,0,2.54,4.41,4,4,0,0,0,1.75.73A3.71,3.71,0,0,1,373.18,56a13.65,13.65,0,0,1,2.22,5,4.41,4.41,0,0,1,0,1.62,1.57,1.57,0,0,1-1.67,1.24,9.79,9.79,0,0,1-1.25-.36,4.86,4.86,0,0,0-3.55.28,10,10,0,0,1-1.47.55,5.94,5.94,0,0,0-3.8,3,2.24,2.24,0,0,0,.88,3h0c1.71,1,3.5,1.74,5.22,2.68a18.09,18.09,0,0,1,2.71,1.78,1.23,1.23,0,0,1-.08,2,16.42,16.42,0,0,1-2.82,1.61c-2,.87-4.05,1.59-6,2.45a16.69,16.69,0,0,0-2.85,1.55,1.38,1.38,0,0,0-.08,2.43c.68.53,1.47.93,2.19,1.42.56.37,1.05.82.86,1.59a1.88,1.88,0,0,1-2,1.29c-.63-.13-1.22-.44-1.85-.62-1.34-.41-2.69-.8-4-1.19-1.73-.5-3-1.74-4.31-2.81a1.08,1.08,0,0,1-.36-.86c.38-1.33-.49-2.27-.92-3.36-1.57-4-3.12-8.12-4.66-12.18-.81-2.14-1.54-4.31-2.39-6.42-.49-1.21-1.06-2.42-2.49-2.82" transform="translate(7.27 -1.86)"/><path d="M252.06,49.47a.69.69,0,0,0-1,.58,2,2,0,0,0,.82,1.61.92.92,0,0,0,.85.08,1,1,0,0,0,.32-.8,2,2,0,0,0-.95-1.47m1,40.56a2.64,2.64,0,0,0,2.1-1.83,2.21,2.21,0,0,0-.35-2.44,4.68,4.68,0,0,0-3.75-1.61,1.4,1.4,0,0,0-1.42,1.12c-.35,1.56,1.3,4.31,2.8,4.69a3.27,3.27,0,0,0,.62.07M223.64,73.85a.8.8,0,0,1,1.49.06,2.9,2.9,0,0,1,0,2,8.21,8.21,0,0,0,.88,7,9.77,9.77,0,0,1,1.37,4.57,7.63,7.63,0,0,0,.65,2.77,8.82,8.82,0,0,1,.5,6.06,8.48,8.48,0,0,0,.33,5.45,2.21,2.21,0,0,0,.18.34,1.53,1.53,0,0,0,2.65-.07c.08-.16.15-.32.22-.48A14.54,14.54,0,0,0,233,92.6a7.75,7.75,0,0,1,1-5.92,13.28,13.28,0,0,0,1.74-5.22c.49-3.12.87-6.25,1.42-9.36a8.38,8.38,0,0,1,1.67-3.9,1.5,1.5,0,0,1,2.34,0,2.9,2.9,0,0,1,.36.55c.73,1.45,1.33,3,2,4.47,1.27,2.93,3.44,4,6.29,2.81,2.47-1.07,4.77-2.53,7.15-3.83.07,0,.56-.31.18-.46a4.91,4.91,0,0,0-1.39-.55,7.21,7.21,0,0,1-4.09-1.88c-1.34-1.11-2.68-2.23-4-3.4A5.11,5.11,0,0,1,246,61.18c.08-.65.16-1.3.23-2a13.66,13.66,0,0,0-1.12-7c-1.15-2.58-2.24-5.19-3.39-7.78a10.16,10.16,0,0,0-1-1.7,1.14,1.14,0,0,0-2.08.22,18.76,18.76,0,0,0-1,2.74,74.25,74.25,0,0,0-2.49,12.8c-.31,2.8-.85,5.59-1.34,8.37,0,.12-.06.24-.1.36a.78.78,0,0,1-1.51-.33h0a40.47,40.47,0,0,1,.77-4.62c.24-1.28.56-2.54.91-3.8,1.18-4.18,1.33-8.51,1.93-12.77a51.5,51.5,0,0,1,2.09-10.22,19,19,0,0,1,1.1-2.79,1.31,1.31,0,0,1,2.29,0v0c1.72,3,3.37,6.09,5.07,9.14a10.34,10.34,0,0,0,2.84,3.71.64.64,0,0,0,.94-.21,1.42,1.42,0,0,0,.21-1.13,51.56,51.56,0,0,1-.81-9.37,6,6,0,0,0-1.9-3.72c-1.61-1.81-2.79-3-5.16-3.76-.31-.1-.48-.15-1-.33,0,0-.89-.2-.93-.42s.21-.46.39-.62l1.46-1.34c2.6-2.43,2.19-4.91-1-6.34a2.1,2.1,0,0,0-2.42.38,6.85,6.85,0,0,0-2.52,4.42c-1,7.43-2.29,14.82-3.52,22.22-.3,1.82-.38,3.68-.65,5.51a8.18,8.18,0,0,1-1.19,4,1,1,0,0,1-1.84-.17A26.91,26.91,0,0,1,228,50c-.8-5.38-2.24-10.65-2.68-16.09a21.63,21.63,0,0,0-.52-2.22,7.17,7.17,0,0,1-.22-2.24,8.79,8.79,0,0,0-1.4-6.54,1.55,1.55,0,0,1-.24-.6.88.88,0,0,1,.36-.82.78.78,0,0,1,1,.17,5.73,5.73,0,0,1,1.09,1.67,14.22,14.22,0,0,1,.91,6.42,17,17,0,0,0,1.12,7c.6,1.63,1.06,3.31,1.66,5a4.06,4.06,0,0,0,.48.85.86.86,0,0,0,1.39,0,2.5,2.5,0,0,0,.45-.78A57.25,57.25,0,0,0,233.94,31c.54-4.4.78-8.91,2.79-13,.75-1.54.52-3.2.44-4.82a8.41,8.41,0,0,1,.68-4.46,3.08,3.08,0,0,1,1-1.26,1.89,1.89,0,0,1,1.48-.2,4.18,4.18,0,0,1,1.53,1.16,11,11,0,0,1,2.78,5.46,9,9,0,0,0,1.91,4.44,4.4,4.4,0,0,1,.7,4.88,3.86,3.86,0,0,0,1.28,4.94c1.26,1,2.49,2.12,3.79,3.1a3.47,3.47,0,0,0,3.39.6,7.11,7.11,0,0,1,1.91-.42,7.81,7.81,0,0,1,2.56.13c3.37,1,2.81,2.66,1.12,4.08-3.1,2.61-3.46,3.25-3,7.27.28,2.45.07,5,.18,7.48.14,3.12-1.52,5.6-4,7.47a2.89,2.89,0,0,1-2.47.55c-.16,0-.32-.08-.47-.12a.93.93,0,0,0-1.2.83,10.17,10.17,0,0,0,.8,4.1,4.41,4.41,0,0,0,4.56,3c2.77-.11,5.08,1,7.35,2.36l.28.17c2.79,1.83,2.83,3,0,4.69-2.15,1.27-4.4,2.38-6.64,3.5-3.2,1.61-3.78,2.7-.42,5.17,3.91,2.87,4.2,5.06,1.6,9.19a19.51,19.51,0,0,1-2.59,3.34c-1.75,1.74-3.66,1.63-5.45-.12a4.05,4.05,0,0,1-.65-.73c-2.31-3.7-4.63-7.42-4.79-12-.09-2.57-1.64-4.17-3.41-5.67a1.27,1.27,0,0,0-2,.42,16.48,16.48,0,0,0-1.32,3.3c-.7,2.63-1.39,5.27-1.86,7.94-.51,2.89-.76,5.82-1.15,8.73-.26,1.88-.63,3.75-.93,5.62-.18,1.1-.4,2.19-.6,3.28-.13.7-.22,1.41-.4,2.1a2.22,2.22,0,0,1-1.6,1.65,2.17,2.17,0,0,1-2.35-1,8.65,8.65,0,0,1-1.16-2.66,42.68,42.68,0,0,1-1-12.65c0-.54.06-1.09.13-1.63a8,8,0,0,0-1.16-5.61,19.41,19.41,0,0,1-2.47-6.36,8.49,8.49,0,0,1,.56-5.46" transform="translate(7.27 -1.86)"/><path d="M23.62,89.09a18.64,18.64,0,0,0-4.23-1.71.54.54,0,0,0-.59.81,30.86,30.86,0,0,0,2.06,3.1c.94,1.18,1.92,1.16,3,.14l.06-.06a1.42,1.42,0,0,0-.34-2.28M24.87,86a2.05,2.05,0,0,0,2.41-.82c.12-.18.23-.35.36-.51a1.8,1.8,0,0,1,2.83-.4,6.09,6.09,0,0,1,1,.86,2.14,2.14,0,0,1,.28.39,1.07,1.07,0,0,1,.19.82,3.5,3.5,0,0,1-.68.94c-2,2.32-2.84,4.31-4.14,7.08A44.61,44.61,0,0,1,25,98.4c-1.83,3-3.27,3-5.19,0-1-1.7-1.78-3.59-2.69-5.37-.66-1.27-1.27-2.56-1.83-3.88-1.5-3.54-2.95-7.11-4.39-10.68a1.87,1.87,0,0,1,0-.94c.13-.89,1.44-1.44,2-.79a12,12,0,0,1,1,1.29,2.33,2.33,0,0,0,2.71.86A35.47,35.47,0,0,0,22.52,76c1.36-.8,1.37-2,.1-2.86a22.47,22.47,0,0,0-2.83-1.61c-1.16-.58-2.4-1-3.55-1.65a11.07,11.07,0,0,1-2.39-1.68,2.79,2.79,0,0,1-.23-4.09,11.86,11.86,0,0,1,2.48-2.09c1.36-.9,2.84-1.62,4.21-2.5a14.19,14.19,0,0,0,2.54-2,2.06,2.06,0,0,0,.21-2.95,20.09,20.09,0,0,0-2.21-2.4,5.59,5.59,0,0,1-2-4.3,8.89,8.89,0,0,0-.16-1.62,24.16,24.16,0,0,1-.43-2.9,6.25,6.25,0,0,1,.13-1.28,2.19,2.19,0,0,0-.79-2.1c-2.14-1.7-3.82-3.66-3.54-6.67A2,2,0,0,0,13,31.37L12,30.9a12.77,12.77,0,0,1-1.69-1c-.72-.5-.69-1.28,0-1.92.24-.21.55-.35.81-.54a.88.88,0,0,0,0-1.41l-.64-.47a.84.84,0,0,1-.1-1.29.76.76,0,0,1,.19-.12,3.31,3.31,0,0,1,1.84-.33c1.88.53,3.74,1.17,5.56,1.88a1.83,1.83,0,0,1,1.26,2.34,2.1,2.1,0,0,0,1.24,2.41c1.14.71,2.48,1.12,3.65,1.72A30.73,30.73,0,0,0,28.6,34a8.86,8.86,0,0,1,1.74.81c1.78,1.09,1.88,2.11.37,3.67a5.91,5.91,0,0,1-.52.48c-3.17,2.71-3.12,3.16-2.55,7a17,17,0,0,1,.14,2,6.83,6.83,0,0,0,1.66,4.41,17.9,17.9,0,0,1,1.23,1.53c1.18,1.7,1.09,2.83-.43,4.31-.78.76-1.68,1.39-2.52,2.09-1.16,1-2.39,1.91-3.46,3-2.67,2.67-2.54,4.18.58,6.21,1.45,1,3.07,1.63,4.61,2.45a27.07,27.07,0,0,1,2.85,1.56A1.35,1.35,0,0,1,32.19,76a32.87,32.87,0,0,1-4.13,1.91c-1.72.69-3.49,1.22-5.21,1.91a12.42,12.42,0,0,0-2.53,1.44,1.46,1.46,0,0,0,0,2.49,10.52,10.52,0,0,0,2.21,1.36c.75.33,1.51.61,2.35.91" transform="translate(7.27 -1.86)"/><path d="M376.78,21.76v0a2,2,0,0,1-2,2.41l-.95,0c-9.2.75-7.63,2-12.36,3.21h0a.9.9,0,0,1-1.21-1.08,2,2,0,0,1,.37-.77,10.22,10.22,0,0,1,1.81-1.85c.76-.61,1.64-1.07,2.43-1.64,2-1.43,2-1.86.28-3.81A9.67,9.67,0,0,1,364,16.74a1.2,1.2,0,0,1,.72-1.58,8,8,0,0,1,1.79-.08,6.5,6.5,0,0,1,.87.12c1.66.38,3.3.85,4.95,1.3a5.22,5.22,0,0,1,3.83,3.66c.17.53.46,1,.59,1.6" transform="translate(7.27 -1.86)"/><path d="M28.07,24.92a.74.74,0,0,1-.81-1.1,4,4,0,0,1,1.06-.95c.94-.73,1.94-1.39,2.88-2.12,1.12-.88,1.7-1.93,1-3.39a.7.7,0,0,1-.08-.2,1.33,1.33,0,0,1,1.08-1.68.75.75,0,0,1,.26,0c1.89.45,3.77,1,5.6,1.58a4.75,4.75,0,0,1,1.83,1.29c1.42,1.53,1.12,2.71-.92,3.31-3.95,1.14-7.93,2.18-11.9,3.24Z" transform="translate(7.27 -1.86)"/><path d="M224.19,69.17a.63.63,0,0,1-1,.39,9.2,9.2,0,0,1-1.14-1.4c-1.49-1.76-3.1-2.74-5.62-2.41h-.11a1.22,1.22,0,0,1-1.23-1,2.58,2.58,0,0,1-.06-.91,8.58,8.58,0,0,1,4.23-6.62,1.74,1.74,0,0,1,2.72,1.17,8.05,8.05,0,0,1,.23,2.24,12,12,0,0,0,1.2,5.32,15.19,15.19,0,0,1,.81,3.1.28.28,0,0,1,0,.09" transform="translate(7.27 -1.86)"/><path d="M216.73,6.4a5.06,5.06,0,0,1,1.32-3.87,1.81,1.81,0,0,1,3,.3,9.06,9.06,0,0,1,1,6.58,1.31,1.31,0,0,1-1.68,1.06,7.11,7.11,0,0,1-.93-.27c-2.15-.71-2.74-1.53-2.76-3.8" transform="translate(7.27 -1.86)"/><path d="M100.93,102.92a2,2,0,0,1,2.66,2.14,22.9,22.9,0,0,1-.93,3.69,1.24,1.24,0,0,1-1.55.84,2.89,2.89,0,0,1-2.54-2.19c-.08-.31-.14-.63-.2-1-.34-2-.1-2.49,1.75-3.23.27-.11.53-.21.81-.3" transform="translate(7.27 -1.86)"/><path d="M9.74,100.43A3.5,3.5,0,0,1,5,102.8a3,3,0,0,1-1.65-1.71c-.61-1.46-1.5-3.11-1.08-4.86a1.5,1.5,0,0,1,2.28-.86l.88.57A1.49,1.49,0,0,0,7,96a1.31,1.31,0,0,0,.28-.24c.76-1,1.38-2.09,2.15-3.08a.94.94,0,0,1,.1-.1.87.87,0,0,1,1.37.73,28.14,28.14,0,0,1-1.19,7.1" transform="translate(7.27 -1.86)"/><path d="M357.67,96.56a1,1,0,0,1,1.45,1.08.36.36,0,0,1,0,.11,5.66,5.66,0,0,1-5.79,3.66,1.9,1.9,0,0,1-1.09-1c-.12-.27.15-.82.39-1.13a3,3,0,0,1,1-.76c1.28-.61,2.52-1.32,4-1.94" transform="translate(7.27 -1.86)"/><path d="M109.17,10.19A4.17,4.17,0,0,1,109,8.27a2.72,2.72,0,0,1,.07-.33c.23-.73.47-1.58,1.33-1.7s1.33.61,1.65,1.31c.49,1.11,1,2.27.43,3.45a2.65,2.65,0,0,1-1.33,1.27c-.67.26-1.27-.26-1.55-.89a10.88,10.88,0,0,1-.44-1.19" transform="translate(7.27 -1.86)"/><path d="M106.9,84a1.4,1.4,0,0,1-2.32.52,2.42,2.42,0,0,1-.55-2,4.65,4.65,0,0,1,.71-2.09,2.46,2.46,0,0,1,1.54-1,1.05,1.05,0,0,1,1.34,1A9.28,9.28,0,0,1,106.9,84" transform="translate(7.27 -1.86)"/><path d="M377.52,74.41a1.28,1.28,0,0,1,2.05-1.35,7,7,0,0,1,.67.66,4.2,4.2,0,0,1,1.4,2.87,1.39,1.39,0,0,1-.52,1.08,2.3,2.3,0,0,1-1.51.13,1.84,1.84,0,0,1-.91-.86,14.27,14.27,0,0,1-1.18-2.53" transform="translate(7.27 -1.86)"/><path d="M9.59,14.46a4.78,4.78,0,0,1,.32,3.42,3,3,0,0,1-1.88,2,2.93,2.93,0,0,1-3.65-1.21,6.61,6.61,0,0,1-.3-7.93,2.14,2.14,0,0,1,3.64,0c.74,1.27,1.37,2.59,1.87,3.65" transform="translate(7.27 -1.86)"/><path d="M33.43,81.09A.66.66,0,0,1,32.84,80a6.12,6.12,0,0,1,4.34-2.32h0a1,1,0,0,1,.66,1.79,9.28,9.28,0,0,1-4.43,1.61" transform="translate(7.27 -1.86)"/><path d="M436.77,95a1.14,1.14,0,0,1-.61.09c-.79,0-1.09-.56-1.54-1.29a6.05,6.05,0,0,1-.76-1.56,2.28,2.28,0,0,1-.08-.9.81.81,0,0,1,.09-.31,1.49,1.49,0,0,1,1.28-.78,1.21,1.21,0,0,1,.5.07c2,1.16,2,4.18,1.12,4.68" transform="translate(7.27 -1.86)"/><path d="M266.48,16.62a1.06,1.06,0,0,1,0,1.7,4.62,4.62,0,0,1-3.56.8,1.32,1.32,0,0,1-.88-.76,1.58,1.58,0,0,1,0-.73,1.48,1.48,0,0,1,.85-1,6.7,6.7,0,0,1,1.79-.4,2.38,2.38,0,0,1,1.84.41" transform="translate(7.27 -1.86)"/><path d="M107.51,25.2a.93.93,0,0,1,.78,0,.85.85,0,0,1,.41.95c-.35,1.84-1,3.23-1.6,5.18a.7.7,0,0,1-1.36,0h0a6.76,6.76,0,0,1,.71-5.22,2.69,2.69,0,0,1,1.06-.87" transform="translate(7.27 -1.86)"/><path d="M9.5,71.1a1.93,1.93,0,0,1-2.71,2.49h0a2.5,2.5,0,0,1-1.1-3.38,2.13,2.13,0,0,1,1.27-1.29,2.13,2.13,0,0,1,1.62.78A8.44,8.44,0,0,1,9.5,71.1" transform="translate(7.27 -1.86)"/><path d="M426.94,17.74a1,1,0,0,1,0-1.36h0c.81-.83,1.58-.87,2.17-.1a6.14,6.14,0,0,1,1,1.53.89.89,0,0,1-1,1.18,2.88,2.88,0,0,1-2.12-1.24" transform="translate(7.27 -1.86)"/><path d="M231.15,77.76a.59.59,0,0,1-1.05.09c-1-1.54-.72-2.18.55-2.72a1,1,0,0,1,.86.08,1,1,0,0,1,.27.84,16.3,16.3,0,0,1-.63,1.71" transform="translate(7.27 -1.86)"/><path d="M214.26,25.57v.06a1.43,1.43,0,0,1-2.09,1.07c-.62-.34-1.15-.49-1.17-1.35a.45.45,0,0,1,0-.11c.16-.5.92-.71,1.77-.91a1.19,1.19,0,0,1,1.48,1.24" transform="translate(7.27 -1.86)"/><text transform="translate(22.05 133.71)" font-size="23" fill="#b3b3b3" font-family="Avenir-Heavy, Avenir">1</text><text transform="translate(128.05 133.71)" font-size="23" fill="#b3b3b3" font-family="Avenir-Heavy, Avenir">2</text><text transform="translate(240.05 133.71)" font-size="23" fill="#b3b3b3" font-family="Avenir-Heavy, Avenir">3</text><text transform="translate(350.05 133.71)" font-size="23" fill="#b3b3b3" font-family="Avenir-Heavy, Avenir">4</text><text transform="translate(463.05 133.71)" font-size="23" fill="#b3b3b3" font-family="Avenir-Heavy, Avenir">5</text></svg>