<svg xmlns="http://www.w3.org/2000/svg" xmlns:xlink="http://www.w3.org/1999/xlink" width="817.18" height="1079.66" viewBox="0 0 817.18 1079.66"><defs><clipPath id="a" transform="translate(0 -0.34)"><rect y="0.34" width="817.18" height="1079.66" fill="none"/></clipPath></defs><title>R</title><g clip-path="url(#a)"><path d="M297.41,647.82c15.88-4.83,24.26-17.72,30.32-27.05,9.69-14.91,15-33.18,11.48-35.24-4.4-2.59-14.94,24.75-38.52,28.68-18.13,3-28.76-10.3-40.16-3.28-7.71,4.75-11.45,16.11-8.76,24.12,4.7,14,29.09,17.79,45.64,12.77m214.46,75.54c10.53-15.58,1.4-43.9-14.05-61.84-17.14-19.9-29.39-12.34-54.54-35.42-19.76-18.15-28.42-37.74-33.73-35.42-3.3,1.45-2.73,10.29-1.68,15.74,3.14,16.47,14.6,23.4,27.55,37.11s30.69,37.8,41.58,65.07c4.81,12,7.62,23,15.76,24.88,6.87,1.54,15-4,19.11-10.12M144,657.26A15.38,15.38,0,0,0,167.53,656a75.94,75.94,0,0,0,7-10.9c8.93-17.56,16.45-35.85,25.25-53.49,5.86-11.72,12.14-23.41,19.7-34.06,9.34-13.16,19.83-15.84,34.47-10.31,7.34,2.77,14.27,6.63,21.33,10.1,9.33,4.6,17.91,2.83,25.82-3.15,12.6-9.53,25.8-31,33.22-52.65a8.46,8.46,0,0,0-9.53-11c-40.42,7.35-104.31,24-126.6,34a234.14,234.14,0,0,0-31,17.12c-10.39,6.74-15.75,16.9-18,29.33-3.46,19.32-8.19,38.41-12.13,57.65-2.43,11.8-.22,21.15,6.89,28.69M121.39,335.59c-8.6-2.67-16.06,6.81-11.28,14.45a9.6,9.6,0,0,0,3.51,3.61C127.5,361,141.93,368,157,372.09c35.57,9.59,71.82,16.65,107.44,26.09,38.12,10.11,76,21.35,113.63,33.06a39.51,39.51,0,0,1,3.77,1.37c12.59,5.2,19.13,18.62,17.88,32.18a96.07,96.07,0,0,0,1.19,14c10.24,31.81,25.76,51.36,52.44,72.62,5.52,4.39,10.48,5.54,14.47,6.64,10.94,3,16.32.4,22.51,1.34,19.54,3,20.84,37.45,33.25,38.67,14.84,1.45,17.84-47.38,59.54-82,12.8-10.61,17.19-9.47,30.93-22.42,11.19-10.55,37.84-35.67,31.7-60.31-2.29-9.18-9.26-18.84-18.79-22.36-10.56-3.9-17.44,2.27-34.77,5.64-17.9,3.48-32,1.07-47.18-1.51-15.84-2.7-26.92-10-51.62-17.44a136.36,136.36,0,0,1-41.68-20.85c-22.82-16.91-34.87-35-25.95-61.29,7.77-22.94,9-47,.82-70-11.48-32.43-20.72-65-23.6-99.58-1.15-13.72-8.74-27.34-15.24-40.06-4.88-9.55-16.54-10.18-23.08-2.15-5.75,7-11.2,14.73-14.94,23-6.54,14.35-11,29.65-17.57,44-5.76,12.51-11.94,25.14-19.95,36.24a27.29,27.29,0,0,1-34.71,8.22c-7.47-3.92-13.78-9.84-21-14.23-16.54-10.07-23.43-9.08-37.84,5.74l-.1.11a20.38,20.38,0,0,0-2.69,24.82A84.21,84.21,0,0,1,221,241c6,13.15,3.48,22.31-7.59,31.47-3,2.51-6.17,5.19-9.73,6.69-20.07,8.44-35,21.57-45.28,41.42-6.14,11.88-11.25,13.07-15.14,14.79-8.42,3.72-17.08,1.78-21.82.24M761.21,834.38c-2.47,2.22-10.61,8.25-13.32,4.43a40.5,40.5,0,0,1-3.73-7.52c-9.89-23-19.23-46.24-29.09-69.26-4.13-9.63-8-19.62-13.85-28.22-10.3-15.2-28.91-15.54-39.67-.59a69.2,69.2,0,0,0-10.89,24.95q-9.35,42.45-16.61,85.35c-1.94,11.55-1.35,23.54-1.79,35.33-.25,6.57.75,13.35-.54,19.68-8.93,43.9-17.82,87.83-27.81,131.5-3.46,15.13-7.09,33.11-26.63,35.21-16.61,1.77-25.92-11.73-33.37-24.17a344.11,344.11,0,0,0-56.16-71.18c-16.92-16.37-24.92-37.71-23.75-61,1.69-33.66-5-65.32-16.14-96.79-5.67-16-7.7-33.35-11.48-50.06-6.51-28.74-17.78-55.2-37.72-77.37-19.69-21.9-30.85-23.31-54.24-6.7-8.6,6.1-16.57,13.08-25.17,19.18-14.07,10-28.76,12-44.45,3.12-9.15-5.19-18.72-9.7-28.31-14.08a28.06,28.06,0,0,0-10.78-2.7c-11.75-.38-14.82,15.83-4.12,20.68a20.55,20.55,0,0,1,1.87,1c13.51,8.11,28,14.76,40.84,23.73,12,8.35,16.78,21.63,9.73,34.92-11.49,21.68-16.7,43.9-15.15,68.44,1,15.47-7.61,28-19.38,37.3-12.41,9.74-26,18-39,27-10.82,7.5-22,14.61-32.16,22.91-13.72,11.18-19.3,26.37-10.79,42.35,19.52,36.66,3.33,69.42-9.74,102.24-6.89,17.3-23.14,20.43-39.35,9.94-17.21-11.13-28.89-27-36.33-45.75-8.24-20.82-15.71-42-23.47-63C51.4,945.59,55.85,928.82,72,915.61c10.18-8.33,21-15.84,31.63-23.68s21.55-15.21,31.72-23.55c11.58-9.49,18.67-21.78,17.55-37.12-1.49-20.62,2.24-41.19,12.39-59.21,12.7-22.55,9.52-34.74-11.31-49.16-11.83-8.19-25.06-14.55-38.15-20.67-15.51-7.24-31.7-13-47.31-20A268.66,268.66,0,0,1,37,665.8c-16.35-10.18-22.83-25-19-44.66,3.16-16.45,4.94-33.1,6.67-49.75,1.22-11.71,7-20.44,17.1-25,17.94-8.15,36-16.45,54.77-22.27,51.58-16,103.58-30.69,155.36-46.07,11.35-3.37,22.89-6.58,33.59-11.5l.2-.09c13.67-6.36,14.24-26,.7-32.61a82,82,0,0,0-15-5.1c-40.68-10.95-81.68-20.76-122.44-31.44S67.4,376,27,364.07c-5.64-1.66-11.74-3.14-17.36-6-12.59-6.41-12.83-24.44-.84-31.91L9,326c24.68-15.22,50.08-29.27,74.84-44.37,19.26-11.74,36.92-25,46.49-47,3.53-8.12,11.27-14.41,17.07-21.55s12.39-13.83,17.3-21.57c21.14-33.34,41.63-67.1,62.77-100.45h0a25.29,25.29,0,0,1,34.42-8c5.62,3.4,11.13,6.64,16.77,9.66,10.85,5.8,20.73,4.7,28.34-5.36,10.28-13.56,18.5-28.66,27.64-43.09,7.72-12.19,14.5-25.15,23.5-36.31,8.52-10.56,22.34-10.06,30.79.69A138.68,138.68,0,0,1,407.21,38.9c16.21,37.66,29.17,76.38,32.08,117.71,2,28,7.7,54.94,22.28,79.22,14.31,23.82,19,47.36,9.83,75.27-9.29,28.31-1.49,40.78,26,53.13,15.6,7,32.08,12,47.89,18.61,17.78,7.41,35.64,8.88,54,3,3.58-1.15,5.78-1.86,7.52-2.45,10-3.42,22.9-4.72,30.43-3.37,20.57,3.67,31,32.36,33.72,39.76,2.07,5.68,9.36,26.6,1.85,49.93-4.07,12.66-9.51,16.72-30.15,40.21-29.3,33.34-44.09,50.39-51.17,69-2.8,7.37,1.1,3.39-10.41,46.06-3.92,14.57-4.06,28.56,2.41,42.43,3.35,7.17,7,14.31,9.29,21.83,9.08,29.22,6,57.36-9.13,84-11.28,19.84-20.5,23.4-42.29,17.18-7.54-2.15-15.06-4.41-22.64-6.41-1.05-.28-4.13-1.27-6.32,1.87-2.32,4.27,2.68,8.83,5.08,12.41,7.33,11,15.35,21.44,22.87,32.27,15.33,22.11,26.43,44.71,21.08,73.64-3.63,19.64,5.42,33.37,15,31,8.65-2.12,13.86-12.27,9.89-30.8-5.32-24.75.89-46.49,9.08-69.23,7.53-20.93,12.48-42.94,16.89-64.81,5.81-28.83,13.69-56.43,34.11-78.72,11.56-12.62,18.46-14,35.05-7.58,4.89,1.91,9.41,4.94,14.41,6.4,12.9,3.76,23.23,9.66,31.42,17.3,3.52,3.29,11.63,9.45,25.05,52,12,38,20.06,64.54,8.86,74.62" transform="translate(0 -0.34)" fill="#231f20"/><path d="M787.55,483.91a32.09,32.09,0,0,1-12.75,1.63c-24.92-1.92-39.89-13.09-51.23-29.71-11.9-17.44-3.6-38.53,17-42.35,27.94-5.2,51.87,3,70,25.38,10.45,12.88,8.53,27.91-5.71,37.23-5.74,3.75-12.37,6.14-17.29,7.82" transform="translate(0 -0.34)" fill="#231f20"/><path d="M593.6,199.26a31.36,31.36,0,0,1-.94-8.12c.47-21.76,5.2-38.06,15.69-52.46,8.83-12.11,23.3-13.77,34-3.53,15,14.27,24.35,31.67,19.26,52.7-5,20.77-20.73,32.61-40.34,39.24-9.46,3.2-18.73-.85-22.47-10.34a136,136,0,0,1-5.23-17.49" transform="translate(0 -0.34)" fill="#231f20"/><path d="M558.38,285.61c8.49,6,10.56,17.69,6.25,27.16a29.79,29.79,0,0,1-2.16,4c-4.23,6.51-10.33,13-19.07,9.89-8.91-3.21-8.52-12-7.36-19.66.76-5,2.2-10.38,4.92-14.56,3.41-5.26,8.48-11.53,15.57-7.94a16.06,16.06,0,0,1,1.85,1.13" transform="translate(0 -0.34)" fill="#231f20"/></g></svg>